<svg width="23" height="16" viewBox="0 0 23 16" fill="none" xmlns="http://www.w3.org/2000/svg">
<path d="M20.125 4.70588H15.3333V6.58824H20.125C20.3792 6.58824 20.6229 6.6874 20.8026 6.8639C20.9824 7.0404 21.0833 7.2798 21.0833 7.52941V9.41177H17.25C16.4877 9.41251 15.7569 9.71023 15.2179 10.2396C14.6789 10.7689 14.3758 11.4867 14.375 12.2353V13.1765C14.3758 13.9251 14.6789 14.6428 15.2179 15.1722C15.7569 15.7015 16.4877 15.9993 17.25 16H23V7.52941C22.9992 6.78079 22.6961 6.06305 22.1571 5.5337C21.6181 5.00435 20.8873 4.70663 20.125 4.70588ZM17.25 14.1176C16.9958 14.1176 16.7521 14.0185 16.5724 13.842C16.3926 13.6655 16.2917 13.4261 16.2917 13.1765V12.2353C16.2917 11.9857 16.3926 11.7463 16.5724 11.5698C16.7521 11.3933 16.9958 11.2941 17.25 11.2941H21.0833V14.1176H17.25ZM11.5 16H13.4167L7.66667 0H5.75L0 16H1.91667L3.54008 11.2941H9.87754L11.5 16ZM4.18888 9.41177L6.58183 2.47435H6.83675L9.22875 9.41177H4.18888Z" fill="black"/>
</svg>
