<svg width="20" height="21" viewBox="0 0 20 21" fill="none" xmlns="http://www.w3.org/2000/svg">
<g id="Group 12991">
<path id="Vector" d="M19.8689 8.55159C19.8356 8.34287 19.6529 8.19322 19.4415 8.19322H19.0211C19.0095 8.19322 19 8.18376 19 8.17208C19 8.16041 18.9905 8.15094 18.9789 8.15094H12.0377C10.9123 8.15094 10 9.06326 10 10.1887C10 11.3141 10.9123 12.2264 12.0377 12.2264H12.3487C13.9645 12.2264 15.039 13.8761 13.8009 14.9142C12.7673 15.7811 11.4442 16.3019 10 16.3019C6.6865 16.3019 4 13.5647 4 10.1887C4 6.81266 6.6865 4.07547 10 4.07547C10.8314 4.07547 11.622 4.24916 12.3406 4.56194C13.3457 4.99934 14.5872 5.0055 15.355 4.22324C16.1541 3.40904 16.1386 2.07617 15.1689 1.47516C13.6614 0.540776 11.894 0 10 0C4.4775 0 0 4.56198 0 10.1887C0 15.8154 4.4775 20.3773 10 20.3773C15.5225 20.3773 20 15.8154 20 10.1887C20 9.6312 19.9541 9.08458 19.8689 8.55159Z" fill="#FFC107"/>
<path id="Vector_2" d="M2.0048 4.07689C1.45237 4.82657 1.70038 5.85514 2.44637 6.41255C3.45062 7.16294 4.90811 6.72344 5.79223 5.83466C6.87426 4.74694 8.35958 4.07548 10.0003 4.07548C10.8317 4.07548 11.6223 4.24917 12.3409 4.56195C13.346 4.99935 14.5875 5.00551 15.3553 4.22325C16.1544 3.40904 16.139 2.07618 15.1693 1.47516C13.6617 0.540779 11.8944 0 10.0003 0C6.72939 0 3.82831 1.60226 2.0048 4.07689Z" fill="#FF3D00"/>
<path id="Vector_3" d="M10.0002 20.3772C11.7412 20.3772 13.375 19.9196 14.7985 19.1198C15.8963 18.503 15.8686 17.0114 14.915 16.1892C14.1555 15.5344 13.0497 15.5473 12.1142 15.9084C11.4431 16.1673 10.7272 16.3023 10.0002 16.3017C8.32087 16.3017 6.8052 15.5974 5.71796 14.4635C4.82976 13.5373 3.31209 13.0753 2.30266 13.8678C1.60148 14.4182 1.37028 15.3984 1.88396 16.1269C3.69766 18.6992 6.65416 20.3772 10.0002 20.3772Z" fill="#4CAF50"/>
<path id="Vector_4" d="M19.8689 8.55159C19.8356 8.34287 19.6529 8.19322 19.4415 8.19322H19.0211C19.0095 8.19322 19 8.18376 19 8.17208C19 8.16041 18.9905 8.15094 18.9789 8.15094H12.0377C10.9123 8.15094 10 9.06326 10 10.1887C10 11.3141 10.9123 12.2264 12.0377 12.2264H12.3464C13.9622 12.2264 15.0364 13.8778 13.7963 14.9135C13.7346 14.965 13.6718 15.0153 13.608 15.0645C13.6089 15.0639 13.6101 15.0639 13.6109 15.0646L14.8675 16.148C15.8469 16.9924 17.5603 17.0122 18.2772 15.936C19.1263 14.6615 20 12.7288 20 10.1887C20 9.6312 19.9541 9.08458 19.8689 8.55159Z" fill="#1976D2"/>
</g>
</svg>
