<svg width="17" height="17" viewBox="0 0 17 17" fill="none" xmlns="http://www.w3.org/2000/svg">
<path d="M4.46598 16.6924H1.19995V6.17504H4.46598V16.6924ZM2.83099 4.7404C1.78676 4.7404 0.939453 3.87512 0.939453 2.83093C0.939453 2.32928 1.13874 1.84817 1.49347 1.49345C1.84821 1.13873 2.32933 0.939453 2.83099 0.939453C3.33266 0.939453 3.81378 1.13873 4.16851 1.49345C4.52325 1.84817 4.72253 2.32928 4.72253 2.83093C4.72253 3.87512 3.87522 4.7404 2.83099 4.7404ZM16.6895 16.6924H13.4308V11.5727C13.4308 10.3524 13.4061 8.78777 11.7328 8.78777C10.0348 8.78777 9.77433 10.1133 9.77433 11.4849V16.6924H6.51168V6.17504H9.6438V7.60968H9.68937C10.1254 6.78322 11.1905 5.91118 12.7793 5.91118C16.0847 5.91118 16.6924 8.08789 16.6924 10.915V16.6924H16.6895Z" fill="white"/>
</svg>
