<svg width="14" height="16" viewBox="0 0 14 16" fill="none" xmlns="http://www.w3.org/2000/svg">
<path d="M0.00292969 13.7144H13.7172V16.0001H0.00292969V13.7144Z" fill="black"/>
<path d="M12.5726 7.16571C12.5767 7.02093 12.5256 6.88 12.4298 6.77143L7.5269 1.33143C7.49703 1.30354 7.46449 1.27866 7.42975 1.25714V0H6.2869V1.71429L0.18404 7.28C0.0729317 7.38246 0.00694293 7.52477 0.000517193 7.67578C-0.00590854 7.82678 0.0477523 7.97418 0.149754 8.08571L5.0469 13.5257C5.14815 13.6383 5.28996 13.7062 5.44118 13.7143H5.46975C5.61334 13.7153 5.75207 13.6623 5.85833 13.5657L11.4298 8.45714V10.8571C11.4298 11.0087 11.49 11.154 11.5971 11.2612C11.7043 11.3684 11.8496 11.4286 12.0012 11.4286C12.1527 11.4286 12.2981 11.3684 12.4052 11.2612C12.5124 11.154 12.5726 11.0087 12.5726 10.8571V7.16571ZM5.51547 12.3086L1.38404 7.73714L6.2869 3.24V5.71429H7.42975V2.93143L11.1955 7.12L5.51547 12.3086Z" fill="black"/>
</svg>
